# xmcd CD database file
#
# Track frame offsets:
#	150
#	12607
#	23266
#	34575
#	44797
#	57327
#	69629
#	80480
#	90928
#	103303
#	116376
#	125881
#	137886
#	147724
#	162134
#	171282
#	180869
#	191086
#	205518
#	218325
#	231314
#	240733
#	252538
#	266282
#	277970
#	289782
#	302745
#	311976
#
# Disc length: 4322 seconds
#
# Revision: 3
# Processed by: cddbd v1.5.2PL0 Copyright (c) Steve Scherf et al.
# Submitted via: CDex 1.51
#
DISCID=9a10e01c
DTITLE=Jackie Wilson - Brunswick Complete Singles Collection 1 CD1
DYEAR=2015
DGENRE=Soul/R&B
TTITLE0=Reet Petite (The Finest Girl You Ever Want To Meet)
TTITLE1=By The Light Of The Silvery Moon
TTITLE2=To Be Loved
TTITLE3=Come Back To Me
TTITLE4=As Long As I Live
TTITLE5=I'm Wanderin
TTITLE6=We Have Love
TTITLE7=Singing A Song
TTITLE8=Lonely Teardrops
TTITLE9=In The Blue Of The Evening
TTITLE10=That's Why (I Love You So)
TTITLE11=Love Is All
TTITLE12=I'll Be Satisfied
TTITLE13=Ask
TTITLE14=You Better Know It
TTITLE15=Never Go Away
TTITLE16=Talk That Talk
TTITLE17=Only You, Only Me
TTITLE18=Night
TTITLE19=Doggin' Around
TTITLE20=(You Werre Made For) All My Love
TTITLE21=A Woman, A Lover, A Friend
TTITLE22=Alone At Last
TTITLE23=Am I The Man
TTITLE24=The Tear Of The Year
TTITLE25=My Empty Arms
TTITLE26=Please Tell Me Why
TTITLE27=Your One And Only Love
EXTD=Ultra-Byte 3 Disc set YEAR: 2015
EXTT0=
EXTT1=
EXTT2=
EXTT3=
EXTT4=
EXTT5=
EXTT6=
EXTT7=
EXTT8=
EXTT9=
EXTT10=
EXTT11=
EXTT12=
EXTT13=
EXTT14=
EXTT15=
EXTT16=
EXTT17=
EXTT18=
EXTT19=
EXTT20=
EXTT21=
EXTT22=
EXTT23=
EXTT24=
EXTT25=
EXTT26=
EXTT27=
PLAYORDER=
